<svg width="75" height="24" viewBox="0 0 75 24" fill="none" xmlns="http://www.w3.org/2000/svg">
<path d="M0 12C0 5.37258 5.37258 0 12 0H63C69.6274 0 75 5.37258 75 12C75 18.6274 69.6274 24 63 24H12C5.37259 24 0 18.6274 0 12Z" fill="#FEF2F2"/>
<mask id="path-2-inside-1_12097_7046" fill="white">
<rect x="13.3333" y="9.33334" width="5.33333" height="5.33333" rx="1"/>
</mask>
<rect x="13.3333" y="9.33334" width="5.33333" height="5.33333" rx="1" stroke="#EF4444" stroke-width="5.33333" mask="url(#path-2-inside-1_12097_7046)"/>
<path d="M35.764 10.264H34.36C34.084 9.328 33.304 8.812 32.332 8.812C30.844 8.812 29.956 10 29.956 11.932C29.956 13.864 30.832 15.028 32.332 15.028C33.268 15.028 34.024 14.548 34.336 13.624H35.752C35.308 15.244 33.94 16.156 32.332 16.156C30.004 16.156 28.588 14.56 28.588 11.932C28.588 9.316 30.016 7.684 32.368 7.684C33.988 7.684 35.38 8.572 35.764 10.264ZM37.0066 16V9.604H38.2906V10.552C38.7106 9.784 39.3706 9.436 40.1146 9.436C40.3666 9.436 40.6066 9.496 40.7266 9.604V10.732C40.5346 10.672 40.3066 10.648 40.0426 10.648C38.8186 10.648 38.2906 11.392 38.2906 12.508V16H37.0066ZM41.6003 8.812V7.36H42.8843V8.812H41.6003ZM41.6003 16V9.604H42.8843V16H41.6003ZM44.6043 14.092V10.6H43.7403V9.604H44.6043V8.128H45.8883V9.604H47.2683V10.6H45.8883V14.02C45.8883 14.752 46.0923 15.1 46.9923 15.1H47.2443V16.036C47.1003 16.108 46.8003 16.156 46.4403 16.156C45.1923 16.156 44.6043 15.472 44.6043 14.092ZM48.2331 8.812V7.36H49.5171V8.812H48.2331ZM48.2331 16V9.604H49.5171V16H48.2331ZM56.4811 11.836H55.1971C55.0411 10.924 54.4531 10.516 53.7091 10.516C52.6411 10.516 52.0651 11.332 52.0651 12.808C52.0651 14.26 52.6651 15.088 53.7451 15.088C54.5131 15.088 55.0531 14.668 55.2451 13.852H56.5171C56.2411 15.448 55.1371 16.156 53.7211 16.156C51.8731 16.156 50.7571 14.884 50.7571 12.808C50.7571 10.636 51.8971 9.436 53.7091 9.436C55.1371 9.436 56.2651 10.24 56.4811 11.836ZM58.9256 11.692H57.6416C57.8456 10.276 58.8176 9.436 60.4136 9.436C62.1536 9.436 63.0176 10.456 63.0176 11.944V14.44C63.0176 15.208 63.0896 15.652 63.2336 16H61.8896C61.7936 15.76 61.7576 15.424 61.7456 15.064C61.2056 15.82 60.3776 16.156 59.6096 16.156C58.3136 16.156 57.4256 15.544 57.4256 14.32C57.4256 13.444 57.9056 12.796 58.8656 12.472C59.7176 12.184 60.5816 12.112 61.7336 12.1V11.956C61.7336 11.02 61.3016 10.516 60.3176 10.516C59.4896 10.516 59.0456 10.972 58.9256 11.692ZM58.7216 14.272C58.7216 14.812 59.1656 15.148 59.8496 15.148C60.9176 15.148 61.7336 14.296 61.7336 13.264V12.976C59.2736 13 58.7216 13.54 58.7216 14.272ZM64.6277 16V7.36H65.9117V16H64.6277Z" fill="#0F172A"/>
</svg>
