<svg width="512" height="512" viewBox="0 0 512 512" fill="none" xmlns="http://www.w3.org/2000/svg">
<path d="M283.507 154.913H87.9791V131.42H104.084C135.434 130.795 154.745 115.003 154.745 87.5615V0H51V512H283.507C381.701 512 461.562 432.139 461.562 333.945C461.562 235.751 381.701 154.913 283.507 154.913ZM335.184 395.004C335.184 394.808 335.223 394.574 335.262 394.378C321.19 406.535 302.935 413.923 282.881 413.923H175.423C131.134 413.923 95.2107 378 95.2107 333.711C95.2107 289.422 131.134 253.498 175.423 253.498H282.881C302.622 253.498 320.681 260.652 334.676 272.496C334.676 272.418 334.676 272.379 334.676 272.301C352.344 286.998 363.641 309.123 363.641 333.867C363.641 358.611 352.579 380.228 335.223 394.926L335.184 395.004Z" fill="black"/>
<path d="M289.644 306.894C274.907 306.894 262.907 318.894 262.907 333.631C262.907 348.368 274.907 360.369 289.644 360.369C304.381 360.369 316.382 348.368 316.382 333.631C316.382 318.894 304.381 306.894 289.644 306.894Z" fill="black"/>
<path d="M168.192 306.894C153.455 306.894 141.454 318.894 141.454 333.631C141.454 348.368 153.455 360.369 168.192 360.369C182.929 360.369 194.929 348.368 194.929 333.631C194.929 318.894 182.929 306.894 168.192 306.894Z" fill="black"/>
</svg>
