<svg width="62" height="24" viewBox="0 0 62 24" fill="none" xmlns="http://www.w3.org/2000/svg">
<path d="M0 12C0 5.37258 5.37258 0 12 0H50C56.6274 0 62 5.37258 62 12C62 18.6274 56.6274 24 50 24H12C5.37258 24 0 18.6274 0 12Z" fill="#FFF7ED"/>
<mask id="path-2-inside-1_12097_7045" fill="white">
<rect x="13.3333" y="9.33334" width="5.33333" height="5.33333" rx="1"/>
</mask>
<rect x="13.3333" y="9.33334" width="5.33333" height="5.33333" rx="1" stroke="#FB923C" stroke-width="5.33333" mask="url(#path-2-inside-1_12097_7045)"/>
<path d="M28.876 16V7.84H30.22V11.26H34.18V7.84H35.524V16H34.18V12.352H30.22V16H28.876ZM37.1823 8.812V7.36H38.4663V8.812H37.1823ZM37.1823 16V9.604H38.4663V16H37.1823ZM42.3223 16.036C40.6903 16.036 39.7063 14.788 39.7063 12.748C39.7063 10.612 40.7143 9.436 42.3223 9.436C43.1383 9.436 43.7503 9.724 44.1583 10.276V9.604H45.4423V16.204C45.4423 17.956 44.2783 18.808 42.7423 18.808C41.2063 18.808 40.1023 18.088 39.8743 16.6H41.1583C41.2783 17.368 41.8903 17.776 42.7303 17.776C43.5823 17.776 44.1583 17.332 44.1583 16.228V15.148C43.7263 15.736 43.1023 16.036 42.3223 16.036ZM42.5863 14.956C43.6063 14.956 44.1583 14.176 44.1583 12.736C44.1583 11.332 43.5823 10.516 42.5863 10.516C41.5663 10.516 41.0143 11.296 41.0143 12.748C41.0143 14.152 41.5783 14.956 42.5863 14.956ZM47.0027 16V7.36H48.2867V10.456C48.7187 9.772 49.3907 9.436 50.2187 9.436C51.5507 9.436 52.3787 10.216 52.3787 11.728V16H51.1067V11.992C51.1067 11.068 50.6987 10.504 49.8227 10.504C48.8627 10.504 48.2867 11.356 48.2867 12.244V16H47.0027Z" fill="#0F172A"/>
</svg>
