<svg width="127" height="26" viewBox="0 0 127 26" fill="none" xmlns="http://www.w3.org/2000/svg">
<g clip-path="url(#clip0_15619_49241)">
<path d="M20.309 19.7949C20.309 17.7153 21.3497 16.2586 22.2116 15.4267C24.2913 13.2267 24.9763 13.1683 27.056 13.1683L29.4932 13.1683V12.1577L20.5762 12.1577V8.47266L36.8331 8.47266V24.641H32.1675V20.3312H31.2755C30.9197 23.4215 28.6896 25.057 25.6878 25.057C22.4771 25.057 20.309 22.7383 20.309 19.7967V19.7949ZM32.1675 15.425V12.0674L27.4117 15.5453C25.7763 16.7347 25.302 17.7454 25.302 18.8746C25.302 20.51 26.4613 21.4905 28.125 21.4905C30.4436 21.4905 32.1675 19.4994 32.1675 15.4267V15.425Z" fill="#514DB0"/>
<path d="M38.6155 16.5219C38.6155 11.2617 42.182 7.90234 47.621 7.90234C51.5449 7.90234 54.5167 9.71476 55.853 12.8953L52.0494 15.7184C51.6033 13.0741 50.0582 11.6174 47.7095 11.6174C44.9749 11.6174 43.1625 13.5785 43.1625 16.5219C43.1625 19.4653 44.9749 21.3963 47.7095 21.3963C50.0582 21.3963 51.6033 19.9397 52.0494 17.2954L55.853 20.1184C54.5149 23.299 51.5432 25.1114 47.621 25.1114C42.182 25.1114 38.6155 21.7521 38.6155 16.5219Z" fill="#514DB0"/>
<path d="M68.871 24.6397L62.0356 17.4466V24.6397H57.3983L57.3983 1.45703L62.0356 1.45703V15.6643L68.871 8.47129L74.9348 8.47129L69.3171 14.059C67.8303 15.574 66.6427 16.0802 64.4427 16.0802H63.3134V17.0909H64.7099C66.8498 17.0608 68.0392 17.5369 69.5843 19.1121L75.172 24.6697L68.871 24.6397Z" fill="#514DB0"/>
<path d="M76.0927 1.45703L80.7884 1.45703V24.6397H76.0927V1.45703Z" fill="#514DB0"/>
<path d="M82.8395 3.15049C82.8395 1.36816 84.2059 0 86.0501 0C87.8944 0 89.259 1.36639 89.259 3.15049C89.259 4.93458 87.8926 6.36115 86.0501 6.36115C84.2076 6.36115 82.8395 4.99476 82.8395 3.15049ZM83.7014 8.47091L88.3971 8.47091V24.6393H83.7014V8.47091Z" fill="#514DB0"/>
<path d="M91.1616 8.4423H95.8573V12.6919H96.7192C96.898 9.62993 99.1865 8.05469 102.01 8.05469C105.369 8.05469 107.388 10.1344 107.388 13.9397V24.639H102.693V14.8601C102.693 12.7202 101.445 11.6795 99.8095 11.6795C97.4325 11.6795 95.8573 13.8495 95.8573 17.8318V24.6372H91.1616V8.4423Z" fill="#514DB0"/>
<path d="M109.082 16.6155C109.082 11.3252 112.59 7.9375 118.148 7.9375C124.091 7.9375 127.481 11.7128 126.944 17.8049L116.81 17.7748C115.204 17.7748 114.551 17.3288 114.403 15.9624H113.51L113.48 16.527C113.48 19.8563 115.204 21.7873 118.118 21.7873C120.436 21.7873 122.042 20.4492 122.634 18.2208L126.082 20.9855C124.596 23.6598 121.803 25.1165 118.146 25.1165C112.588 25.1165 109.08 21.8474 109.08 16.6155H109.082ZM122.546 14.8314C122.279 12.6314 120.585 11.3535 118.148 11.3535C115.711 11.3535 114.165 12.6013 113.659 14.8314L122.546 14.8314Z" fill="#514DB0"/>
<path d="M10.5267 8.46738L1.67344 8.46738L1.67344 7.40365H2.40266C3.82215 7.37533 4.6965 6.66028 4.6965 5.41778L4.6965 1.45313L-0.000915527 1.45312L-0.000915527 24.6358H10.5267C14.9727 24.6358 18.5887 21.0198 18.5887 16.5737C18.5887 12.1276 14.9727 8.46738 10.5267 8.46738ZM12.8665 19.3383C12.8665 19.3295 12.8683 19.3189 12.8701 19.31C12.2329 19.8605 11.4063 20.195 10.4983 20.195H5.63279C3.62745 20.195 2.00088 18.5684 2.00088 16.5631C2.00088 14.5577 3.62745 12.9312 5.63279 12.9312H10.4983C11.3922 12.9312 12.2099 13.2551 12.8435 13.7914C12.8435 13.7878 12.8435 13.786 12.8435 13.7825C13.6435 14.448 14.155 15.4498 14.155 16.5702C14.155 17.6905 13.6541 18.6693 12.8683 19.3348L12.8665 19.3383Z" fill="#514DB0"/>
<path d="M10.8038 15.3477C10.1366 15.3477 9.5932 15.891 9.5932 16.5583C9.5932 17.2256 10.1366 17.7689 10.8038 17.7689C11.4711 17.7689 12.0145 17.2256 12.0145 16.5583C12.0145 15.891 11.4711 15.3477 10.8038 15.3477Z" fill="#514DB0"/>
<path d="M5.30469 15.3477C4.63743 15.3477 4.09406 15.891 4.09406 16.5583C4.09406 17.2256 4.63743 17.7689 5.30469 17.7689C5.97196 17.7689 6.51533 17.2256 6.51533 16.5583C6.51533 15.891 5.97196 15.3477 5.30469 15.3477Z" fill="#514DB0"/>
</g>
<defs>
<clipPath id="clip0_15619_49241">
<rect width="127" height="25.1136" fill="white"/>
</clipPath>
</defs>
</svg>
