<svg width="60" height="24" viewBox="0 0 60 24" fill="none" xmlns="http://www.w3.org/2000/svg">
<path d="M0 12C0 5.37258 5.37258 0 12 0H48C54.6274 0 60 5.37258 60 12C60 18.6274 54.6274 24 48 24H12C5.37258 24 0 18.6274 0 12Z" fill="#EFF6FF"/>
<mask id="path-2-inside-1_12097_7043" fill="white">
<rect x="13.3333" y="9.33334" width="5.33333" height="5.33333" rx="1"/>
</mask>
<rect x="13.3333" y="9.33334" width="5.33333" height="5.33333" rx="1" stroke="#93C5FD" stroke-width="5.33333" mask="url(#path-2-inside-1_12097_7043)"/>
<path d="M28.876 16V7.84H30.22V14.908H34.168V16H28.876ZM37.9833 16.156C36.1233 16.156 34.9953 14.896 34.9953 12.808C34.9953 10.636 36.1593 9.436 37.9833 9.436C39.8433 9.436 40.9713 10.72 40.9713 12.808C40.9713 14.968 39.8073 16.156 37.9833 16.156ZM37.9833 15.076C39.0753 15.076 39.6633 14.284 39.6633 12.808C39.6633 11.344 39.0633 10.516 37.9833 10.516C36.9033 10.516 36.3033 11.32 36.3033 12.808C36.3033 14.26 36.9033 15.076 37.9833 15.076ZM47.7197 16L46.4477 11.452L46.3157 10.732L46.1717 11.452L44.8997 16H43.3157L41.4677 9.604H42.8477L44.0237 14.356L44.1797 15.076L44.3477 14.356L45.6917 9.604H47.0477L48.4037 14.356L48.5477 15.04L48.6917 14.356L49.8677 9.604H51.1877L49.3277 16H47.7197Z" fill="#0F172A"/>
</svg>
