<svg width="81" height="24" viewBox="0 0 81 24" fill="none" xmlns="http://www.w3.org/2000/svg">
<path d="M0 12C0 5.37258 5.37258 0 12 0H69C75.6274 0 81 5.37258 81 12C81 18.6274 75.6274 24 69 24H12C5.37258 24 0 18.6274 0 12Z" fill="#FFFBEB"/>
<mask id="path-2-inside-1_12097_7044" fill="white">
<rect x="13.3333" y="9.33334" width="5.33333" height="5.33333" rx="1"/>
</mask>
<rect x="13.3333" y="9.33334" width="5.33333" height="5.33333" rx="1" stroke="#FBBF24" stroke-width="5.33333" mask="url(#path-2-inside-1_12097_7044)"/>
<path d="M28.876 16V7.84H30.688L32.992 13.492L33.268 14.356L33.544 13.492L35.824 7.84H37.588V16H36.244L36.28 9.388L35.692 11.14L33.712 16H32.752L30.76 11.128L30.184 9.424L30.22 16H28.876ZM44.9208 13.912C44.5728 15.4 43.4688 16.156 41.9688 16.156C40.0848 16.156 38.9328 14.896 38.9328 12.808C38.9328 10.636 40.0848 9.436 41.9088 9.436C43.7568 9.436 44.8728 10.684 44.8728 12.736V13.048H40.2408C40.3128 14.356 40.9248 15.088 41.9688 15.088C42.7848 15.088 43.3608 14.704 43.5768 13.912H44.9208ZM41.9088 10.504C40.9848 10.504 40.4328 11.092 40.2768 12.172H43.5408C43.3848 11.092 42.8208 10.504 41.9088 10.504ZM48.5589 16.156C46.8669 16.156 45.8469 14.896 45.8469 12.808C45.8469 10.636 46.8909 9.436 48.5589 9.436C49.2909 9.436 49.8909 9.736 50.2989 10.324V7.36H51.5829V16H50.2989V15.22C49.8909 15.82 49.2909 16.156 48.5589 16.156ZM48.7269 15.076C49.7469 15.076 50.2989 14.284 50.2989 12.808C50.2989 11.344 49.7229 10.516 48.7269 10.516C47.7069 10.516 47.1549 11.332 47.1549 12.808C47.1549 14.26 47.7309 15.076 48.7269 15.076ZM53.1316 8.812V7.36H54.4156V8.812H53.1316ZM53.1316 16V9.604H54.4156V16H53.1316ZM59.9995 13.348V9.604H61.2715V16H59.9995V15.136C59.5795 15.82 58.9075 16.156 58.0915 16.156C56.7835 16.156 55.9675 15.388 55.9675 13.876V9.604H57.2515V13.612C57.2515 14.536 57.6355 15.088 58.4875 15.088C59.4235 15.088 59.9995 14.236 59.9995 13.348ZM62.8347 16V9.604H64.1187V10.42C64.5267 9.76 65.1627 9.436 65.9187 9.436C66.7707 9.436 67.4067 9.808 67.7187 10.54C68.1387 9.808 68.8347 9.436 69.6747 9.436C70.9347 9.436 71.7507 10.216 71.7507 11.728V16H70.4667V11.992C70.4667 11.068 70.1187 10.504 69.3267 10.504C68.4627 10.504 67.9347 11.356 67.9347 12.244V16H66.6507V11.992C66.6507 11.068 66.2907 10.504 65.5107 10.504C64.6467 10.504 64.1187 11.356 64.1187 12.244V16H62.8347Z" fill="#0F172A"/>
</svg>
