<?xml version="1.0" encoding="UTF-8"?>
<svg id="Layer_2" xmlns="http://www.w3.org/2000/svg" version="1.1" viewBox="0 0 717.5 141.9">
  <!-- Generator: Adobe Illustrator 29.5.1, SVG Export Plug-In . SVG Version: 2.1.0 Build 141)  -->
  <defs>
    <style>
      .st0 {
        fill: #fff;
      }
    </style>
  </defs>
  <g id="ART">
    <g>
      <path class="st0" d="M114.8,111.8c0-11.8,5.9-20,10.8-24.7,11.8-12.4,15.6-12.8,27.4-12.8h13.8v-5.7h-50.4v-20.8h91.8v91.4h-26.4v-24.3h-5c-2,17.5-14.6,26.7-31.6,26.7s-30.4-13.1-30.4-29.7h0ZM181.8,87.2v-19l-26.9,19.7c-9.2,6.7-11.9,12.4-11.9,18.8,0,9.2,6.6,14.8,15.9,14.8s22.8-11.2,22.8-34.3h0Z"/>
      <path class="st0" d="M218.2,93.4c0-29.7,20.1-48.7,50.9-48.7s39,10.2,46.5,28.2l-21.5,15.9c-2.5-14.9-11.2-23.2-24.5-23.2s-25.7,11.1-25.7,27.7,10.2,27.5,25.7,27.5,22-8.2,24.5-23.2l21.5,15.9c-7.6,18-24.4,28.2-46.5,28.2s-50.9-19-50.9-48.5h0Z"/>
      <path class="st0" d="M389.1,139.2l-38.6-40.6v40.6h-26.2V8.2h26.2v80.3l38.6-40.6h34.3l-31.7,31.6c-8.4,8.6-15.1,11.4-27.5,11.4h-6.4v5.7h7.9c12.1-.2,18.8,2.5,27.5,11.4l31.6,31.4-35.6-.2h0Z"/>
      <path class="st0" d="M429.9,8.2h26.5v131h-26.5V8.2Z"/>
      <path class="st0" d="M468,17.8C468,7.7,475.8,0,486.2,0s18.1,7.7,18.1,17.8-7.7,18.1-18.1,18.1-18.1-7.7-18.1-18.1h0ZM472.9,47.9h26.5v91.3h-26.5V47.9Z"/>
      <path class="st0" d="M515.1,47.7h26.5v24h4.9c1-17.3,13.9-26.2,29.9-26.2s30.4,11.8,30.4,33.3v60.4h-26.5v-55.2c0-12.1-7-18-16.3-18-13.4,0-22.3,12.3-22.3,34.8v38.4h-26.5V47.7Z"/>
      <path class="st0" d="M616.3,93.9c0-29.9,19.8-49,51.2-49s52.7,21.3,49.7,55.8l-57.3-.2c-9.1,0-12.8-2.5-13.6-10.2h-5l-.2,3.2c0,18.8,9.7,29.7,26.2,29.7s22.2-7.6,25.5-20.2l19.5,15.6c-8.4,15.1-24.2,23.3-44.8,23.3-31.4,0-51.2-18.5-51.2-48h0ZM692.4,83.8c-1.5-12.4-11.1-19.7-24.8-19.7s-22.5,7.1-25.4,19.7h50.2,0Z"/>
      <g>
        <path class="st0" d="M59.5,47.9H9.5v-6h4.1c8-.2,13-4.2,13-11.2V8.2H0v131h59.5c25.1,0,45.5-20.4,45.5-45.6s-20.4-45.8-45.5-45.8h0ZM72.7,109.3c0,0,0-.1,0-.2-3.6,3.1-8.3,5-13.4,5h-27.5c-11.3,0-20.5-9.2-20.5-20.5s9.2-20.5,20.5-20.5h27.5c5.1,0,9.7,1.8,13.2,4.9h0c4.5,3.7,7.4,9.4,7.4,15.7s-2.8,11.9-7.3,15.6h0Z"/>
        <g>
          <path class="st0" d="M61,86.7c-3.8,0-6.8,3.1-6.8,6.8s3.1,6.8,6.8,6.8,6.8-3.1,6.8-6.8-3.1-6.8-6.8-6.8Z"/>
          <path class="st0" d="M30,86.7c-3.8,0-6.8,3.1-6.8,6.8s3.1,6.8,6.8,6.8,6.8-3.1,6.8-6.8-3.1-6.8-6.8-6.8Z"/>
        </g>
      </g>
    </g>
  </g>
</svg>