<?xml version="1.0" encoding="UTF-8"?>
<svg id="Layer_2" data-name="Layer 2" xmlns="http://www.w3.org/2000/svg" viewBox="0 0 717.54 141.89">
  <g id="ART">
    <g>
      <path d="M114.75,111.84c0-11.75,5.88-19.98,10.75-24.68,11.75-12.43,15.62-12.76,27.37-12.76h13.77v-5.71h-50.38v-20.82h91.85v91.35h-26.36v-24.35h-5.04c-2.01,17.46-14.61,26.7-31.57,26.7-18.14,0-30.39-13.1-30.39-29.72ZM181.75,87.15v-18.97l-26.87,19.65c-9.24,6.72-11.92,12.43-11.92,18.81,0,9.24,6.55,14.78,15.95,14.78,13.1,0,22.84-11.25,22.84-34.26Z"/>
      <path d="M218.18,93.36c0-29.72,20.15-48.7,50.88-48.7,22.17,0,38.96,10.24,46.51,28.21l-21.49,15.95c-2.52-14.94-11.25-23.17-24.52-23.17-15.45,0-25.69,11.08-25.69,27.71s10.24,27.54,25.69,27.54c13.27,0,22-8.23,24.52-23.17l21.49,15.95c-7.56,17.97-24.35,28.21-46.51,28.21-30.73,0-50.88-18.98-50.88-48.53Z"/>
      <path d="M389.12,139.21l-38.62-40.64v40.64h-26.2V8.23h26.2v80.27l38.62-40.64h34.26l-31.74,31.57c-8.4,8.56-15.11,11.42-27.54,11.42h-6.38v5.71h7.89c12.09-.17,18.81,2.52,27.54,11.42l31.57,31.4-35.6-.17Z"/>
      <path d="M429.92,8.23h26.53v130.98h-26.53V8.23Z"/>
      <path d="M468.04,17.8c0-10.07,7.72-17.8,18.14-17.8s18.13,7.72,18.13,17.8-7.72,18.14-18.13,18.14-18.14-7.72-18.14-18.14ZM472.91,47.86h26.53v91.35h-26.53V47.86Z"/>
      <path d="M515.06,47.69h26.53v24.01h4.87c1.01-17.3,13.94-26.2,29.89-26.2,18.98,0,30.39,11.75,30.39,33.25v60.45h-26.53v-55.25c0-12.09-7.05-17.97-16.29-17.97-13.43,0-22.33,12.26-22.33,34.76v38.45h-26.53V47.69Z"/>
      <path d="M616.31,93.87c0-29.89,19.82-49.03,51.22-49.03,33.58,0,52.73,21.33,49.7,55.75l-57.26-.17c-9.07,0-12.76-2.52-13.6-10.24h-5.04l-.17,3.19c0,18.81,9.74,29.72,26.2,29.72,13.1,0,22.17-7.56,25.52-20.15l19.48,15.62c-8.4,15.11-24.18,23.34-44.84,23.34-31.4,0-51.22-18.47-51.22-48.03ZM692.38,83.79c-1.51-12.43-11.08-19.65-24.85-19.65s-22.5,7.05-25.36,19.65h50.21Z"/>
      <g>
        <path d="M59.48,47.86H9.46v-6.01h4.12c8.02-.16,12.96-4.2,12.96-11.22V8.23H0v130.98h59.48c25.12,0,45.55-20.43,45.55-45.55s-20.43-45.8-45.55-45.8ZM72.7,109.28c0-.05.01-.11.02-.16-3.6,3.11-8.27,5-13.4,5h-27.49c-11.33,0-20.52-9.19-20.52-20.52s9.19-20.52,20.52-20.52h27.49c5.05,0,9.67,1.83,13.25,4.86,0-.02,0-.03,0-.05,4.52,3.76,7.41,9.42,7.41,15.75s-2.83,11.86-7.27,15.62Z"/>
        <g>
          <path d="M61.05,86.74c-3.77,0-6.84,3.07-6.84,6.84s3.07,6.84,6.84,6.84,6.84-3.07,6.84-6.84-3.07-6.84-6.84-6.84Z"/>
          <path d="M29.98,86.74c-3.77,0-6.84,3.07-6.84,6.84s3.07,6.84,6.84,6.84,6.84-3.07,6.84-6.84-3.07-6.84-6.84-6.84Z"/>
        </g>
      </g>
    </g>
  </g>
</svg>